<?xml version="1.0" encoding="utf-8"?><svg xml:space="preserve" viewBox="0 0 100 100" y="0" x="0" xmlns="http://www.w3.org/2000/svg" id="圖層_1" version="1.1" width="47px" height="47px" xmlns:xlink="http://www.w3.org/1999/xlink" style="width:100%;height:100%;background-size:initial;background-repeat-y:initial;background-repeat-x:initial;background-position-y:initial;background-position-x:initial;background-origin:initial;background-color:initial;background-clip:initial;background-attachment:initial;animation-play-state:paused" ><g class="ldl-scale" style="transform-origin:50% 50%;transform:rotate(0deg) scale(0.8, 0.8);animation-play-state:paused" ><circle stroke-miterlimit="10" stroke="#333" stroke-width="3.5" fill="#e0e0e0" r="40" cy="50" cx="50" style="stroke:rgb(255, 255, 255);fill:rgb(255, 255, 255);animation-play-state:paused" ></circle>
<path stroke-linecap="round" stroke="#fff" fill="none" stroke-miterlimit="10" stroke-width="3.5" d="M25.178 29.02a32.535 32.535 0 0 1 14.919-9.983" style="stroke:rgb(255, 255, 255);animation-play-state:paused" ></path>
<path stroke-linecap="round" stroke="#fff" fill="none" stroke-miterlimit="10" stroke-width="3.5" d="M20.12 37.195c.321-.747.669-1.48 1.042-2.197" style="stroke:rgb(255, 255, 255);animation-play-state:paused" ></path>
<path stroke-linecap="round" stroke="#000" stroke-miterlimit="10" stroke-linejoin="round" stroke-width="3.5" opacity=".1" d="M80.312 23.917c3.451 9.779 3.737 21.283.041 32.588-5.938 18.163-20.465 30.677-36.161 33.07 1.897.276 3.835.425 5.808.425 22.091 0 40-17.909 40-40 0-9.969-3.655-19.079-9.688-26.083z" style="stroke:rgb(255, 255, 255);fill:rgb(255, 255, 255);animation-play-state:paused" ></path>
<path stroke-miterlimit="10" stroke="#333" stroke-width="3.5" fill="#e0e0e0" d="M80.223 53.126h-13.46v-6.251h13.46a3.126 3.126 0 0 1 3.126 3.126v0c0 1.725-1.4 3.125-3.126 3.125z" style="stroke:rgb(255, 255, 255);fill:rgb(255, 255, 255);animation-play-state:paused" ></path>
<circle stroke-miterlimit="10" stroke="#333" stroke-width="3.5" fill="#e0e0e0" r="22.5" cy="50" cx="50" style="stroke:rgb(255, 255, 255);fill:rgb(255, 255, 255);animation-play-state:paused" ></circle>
<circle stroke-miterlimit="10" stroke="#333" stroke-width="3.5" fill="#66503a" r="15" cy="50" cx="50" style="stroke:rgb(255, 255, 255);fill:rgba(255, 255, 254, 0);animation-play-state:paused" ></circle>
<path stroke-linecap="round" stroke="#000" stroke-miterlimit="10" stroke-linejoin="round" stroke-width="3.5" opacity=".1" d="M57.574 37.068c1.535 3.269 2.106 7.18 1.379 11.2-1.64 9.073-9.257 15.314-17.192 14.26A14.92 14.92 0 0 0 50 65c8.284 0 15-6.716 15-15 0-5.518-2.988-10.327-7.426-12.932z" style="stroke:rgb(255, 255, 255);fill:rgb(255, 255, 255);animation-play-state:paused" ></path>
<metadata xmlns:d="https://loading.io/stock/" style="animation-play-state:paused" ><d:name style="animation-play-state:paused" >coffee</d:name>


<d:tags style="animation-play-state:paused" >coffee,cafe,tea,cup,drink,cafeteria,latte,cappuccino,espresso,macchiato</d:tags>


<d:license style="animation-play-state:paused" >by</d:license>


<d:slug style="animation-play-state:paused" >gmwrat</d:slug></metadata></g><!-- generated by https://loading.io/ --></svg>